<svg width="102" height="78" viewBox="0 0 102 78" fill="none" xmlns="http://www.w3.org/2000/svg">
<path d="M48.5893 75.0793V10.6479C47.7051 8.75341 39.5677 6.02375 32.2782 3.96994C29.4206 3.16482 27.6618 2.85611 24.5843 1.9572C23.0455 1.3577 6.36523 -0.560123 3.65699 0.159111C0.948749 0.878345 0.271819 3.65539 0.271884 4.95401C0.0667138 23.2345 -0.220524 60.6946 0.271884 64.2908C0.764291 67.887 3.34943 69.3854 4.58045 69.6851C31.0473 71.1835 40.8955 76.5777 44.8963 77.7765C48.0969 78.7354 48.6919 76.3779 48.5893 75.0793Z" fill="url(#paint0_linear)"/>
<path d="M53.4105 75.0793V10.6479C54.2839 8.75341 62.3208 6.02375 69.5204 3.96994C72.3427 3.16482 74.0797 2.85611 77.1192 1.9572C78.639 1.3577 95.1134 -0.560123 97.7882 0.159111C100.463 0.878345 101.132 3.65539 101.131 4.95401C101.334 23.2345 101.618 60.6946 101.131 64.2908C100.645 67.887 98.0919 69.3854 96.8761 69.6851C70.736 71.1835 61.0094 76.5777 57.058 77.7765C53.8969 78.7354 53.3092 76.3779 53.4105 75.0793Z" fill="url(#paint1_linear)"/>
<defs>
<linearGradient id="paint0_linear" x1="24.413" y1="5.40074e-08" x2="21.5066" y2="77.8958" gradientUnits="userSpaceOnUse">
<stop stop-color="#5E52EB"/>
<stop offset="1" stop-color="#632CFF" stop-opacity="0.4"/>
</linearGradient>
<linearGradient id="paint1_linear" x1="77.2884" y1="5.40074e-08" x2="80.2311" y2="77.893" gradientUnits="userSpaceOnUse">
<stop stop-color="#5E52EB"/>
<stop offset="1" stop-color="#632CFF" stop-opacity="0.4"/>
</linearGradient>
</defs>
</svg>
