<svg width="108" height="80" viewBox="0 0 108 80" fill="none" xmlns="http://www.w3.org/2000/svg">
<path d="M13.6323 66.7265V1.43498C13.5127 1.07623 12.9148 0 11.4798 0H2.15247C1.3154 0 0 0 0 1.43498C2.52518e-08 2.61829 0.119581 49.5067 0 72.8251V75.6951C0 77.13 0.860986 80 4.30493 80C7.74888 80 72.4664 79.7608 104.395 79.6413H105.471C106.069 79.5217 107.265 78.9955 107.265 77.8475V69.5964C107.265 67.8027 106.188 66.7265 104.395 66.7265H102.96H13.6323Z" fill="url(#paint0_linear)"/>
<rect x="23" y="32" width="14" height="21" rx="1" fill="url(#paint1_linear)"/>
<rect x="40" y="17" width="14" height="36" rx="1" fill="url(#paint2_linear)"/>
<rect x="57" y="27" width="14" height="26" rx="1" fill="url(#paint3_linear)"/>
<rect x="74" y="11" width="14" height="42" rx="1" fill="url(#paint4_linear)"/>
<defs>
<linearGradient id="paint0_linear" x1="53.8817" y1="5.53922e-08" x2="52.495" y2="79.9803" gradientUnits="userSpaceOnUse">
<stop stop-color="#5E52EB"/>
<stop offset="1" stop-color="#632CFF" stop-opacity="0.4"/>
</linearGradient>
<linearGradient id="paint1_linear" x1="30.0326" y1="32" x2="29.3011" y2="52.9756" gradientUnits="userSpaceOnUse">
<stop stop-color="#5E52EB"/>
<stop offset="1" stop-color="#632CFF" stop-opacity="0.4"/>
</linearGradient>
<linearGradient id="paint2_linear" x1="47.0326" y1="17" x2="44.888" y2="52.8737" gradientUnits="userSpaceOnUse">
<stop stop-color="#5E52EB"/>
<stop offset="1" stop-color="#632CFF" stop-opacity="0.4"/>
</linearGradient>
<linearGradient id="paint3_linear" x1="64.0326" y1="27" x2="62.912" y2="52.953" gradientUnits="userSpaceOnUse">
<stop stop-color="#5E52EB"/>
<stop offset="1" stop-color="#632CFF" stop-opacity="0.4"/>
</linearGradient>
<linearGradient id="paint4_linear" x1="81.0326" y1="11" x2="78.1173" y2="52.7989" gradientUnits="userSpaceOnUse">
<stop stop-color="#5E52EB"/>
<stop offset="1" stop-color="#632CFF" stop-opacity="0.4"/>
</linearGradient>
</defs>
</svg>
