<svg width="95" height="77" viewBox="0 0 95 77" fill="none" xmlns="http://www.w3.org/2000/svg">
<path d="M24.3787 36.975C21.0408 32.4036 14.746 34.535 13.3824 37.0066C9.79475 43.6693 2.20952 57.9687 0.569345 61.8639C-0.353907 64.0564 0.0143484 67.4069 0.493931 68.3927C0.538254 68.4839 0.569668 68.5769 0.615366 68.6673C1.29831 70.0187 9.50851 77.9044 20.3014 76.727C34.3958 75.1894 35.9334 70.0642 36.7021 68.7829C38.1938 66.2968 37.5564 62.6326 36.7021 60.8388L24.4192 37.0406C24.4075 37.0179 24.3937 36.9956 24.3787 36.975Z" fill="url(#paint0_linear)"/>
<path d="M8.45168 58.4242L18.03 39.703C18.4147 38.951 19.4929 38.961 19.8636 39.72L29.0065 58.4413C29.3391 59.1222 28.8433 59.9161 28.0855 59.9161H9.36422C8.59807 59.9161 8.10272 59.1063 8.45168 58.4242Z" fill="#040224"/>
<path d="M81.7818 15.9616C78.4439 11.3902 72.1491 13.5216 70.7855 15.9931C67.1979 22.6559 59.6126 36.9553 57.9725 40.8504C57.0492 43.043 57.4175 46.3935 57.897 47.3793C57.9414 47.4704 57.9728 47.5635 58.0185 47.6539C58.7014 49.0053 66.9116 56.891 77.7045 55.7136C91.7989 54.176 93.3365 49.0508 94.1053 47.7695C95.5969 45.2834 94.9595 41.6192 94.1053 39.8254L81.8223 16.0272C81.8106 16.0045 81.7968 15.9822 81.7818 15.9616Z" fill="url(#paint1_linear)"/>
<path d="M65.8537 37.4108L75.432 18.6895C75.8167 17.9375 76.8949 17.9476 77.2656 18.7066L86.4085 37.4278C86.7411 38.1088 86.2453 38.9027 85.4875 38.9027H66.7662C66.0001 38.9027 65.5047 38.0928 65.8537 37.4108Z" fill="#040224"/>
<path d="M40.1372 21.5113L20.7577 28.3961C19.8181 28.8232 17.7338 29.3186 16.9138 27.8835C16.0937 26.4485 15.2054 23.6979 14.8637 22.5021C14.6074 21.9895 14.5562 20.8107 16.4013 20.1957L35.621 13.7892C35.1084 10.5432 36.0822 3.28248 44.0776 0.20735C47.1527 -0.390592 54.123 -0.0489112 57.4032 6.10135L74.0601 0.719858C74.8289 0.292757 76.5715 -0.305186 77.3915 0.719858C78.4166 2.00116 80.7229 6.61386 79.9541 7.89517C79.3391 8.92021 65.1764 13.2766 58.1719 15.3267C58.2574 16.7789 57.2494 20.247 52.5342 22.5021V66.8352H78.6728C79.3562 67.0061 80.7229 67.809 80.7229 69.6541V75.5481C80.6375 76.0606 80.1225 76.8294 78.6728 76.8294H44.5901C43.8213 76.6585 42.54 76.0606 42.54 74.523V23.5271C41.0261 23.0946 40.1326 21.7859 40.1372 21.5113Z" fill="url(#paint2_linear)"/>
<defs>
<linearGradient id="paint0_linear" x1="18.8862" y1="34.29" x2="17.7671" y2="76.8193" gradientUnits="userSpaceOnUse">
<stop stop-color="#5E52EB"/>
<stop offset="1" stop-color="#632CFF" stop-opacity="0.4"/>
</linearGradient>
<linearGradient id="paint1_linear" x1="76.2893" y1="13.2766" x2="75.1702" y2="55.8058" gradientUnits="userSpaceOnUse">
<stop stop-color="#5E52EB"/>
<stop offset="1" stop-color="#632CFF" stop-opacity="0.4"/>
</linearGradient>
<linearGradient id="paint2_linear" x1="47.8818" y1="5.31969e-08" x2="45.8036" y2="76.7773" gradientUnits="userSpaceOnUse">
<stop stop-color="#5E52EB"/>
<stop offset="1" stop-color="#632CFF" stop-opacity="0.4"/>
</linearGradient>
</defs>
</svg>
