<svg width="95" height="76" viewBox="0 0 95 76" fill="none" xmlns="http://www.w3.org/2000/svg">
<path d="M0.0642852 70.5561L6.59261 53.231C8.35022 55.2397 11.3145 58.1552 12.3676 60.2615C12.7694 61.0649 12.8698 61.2658 12.3676 63.0234C10.158 69.4513 7.84801 74.5736 5.83934 75.3268C0.56642 76.0801 -0.270501 72.5648 0.0642852 70.5561Z" fill="url(#paint0_linear)"/>
<path d="M94.9004 70.4749L87.1608 53.231C85.0771 55.2303 81.5629 58.1321 80.3143 60.2285C79.838 61.0282 79.719 61.2282 80.3143 62.9775C82.9339 69.3753 85.6725 74.4735 88.0538 75.2232C94.3051 75.973 95.2973 72.4742 94.9004 70.4749Z" fill="url(#paint1_linear)"/>
<path d="M5.08537 43.4386C6.08973 46.2508 13.7061 54.3191 17.3887 58.0017L18.3931 72.5648C23.917 78.842 26.9301 74.3224 27.4323 72.5648C27.834 71.1587 26.7627 59.7593 26.1768 54.2353L17.3887 44.945C18.8953 39.5884 21.6572 29.9298 20.6529 34.1482C19.6485 38.3666 28.604 44.6102 33.2073 47.2048H60.325C61.7478 46.4515 65.4472 44.2921 68.862 41.6808C73.1305 38.4167 72.6284 34.1482 73.1305 34.1482C73.5323 34.1482 75.1393 41.3461 75.8925 44.945C69.8664 50.7702 67.6903 54.7375 67.3555 55.9929C66.6022 61.768 66.1 71.2173 66.1 72.5648C66.1 74.8246 71.8751 77.5866 73.8838 73.5692C75.4908 70.3552 76.3947 61.1821 76.6458 56.9973C81.4667 52.3772 86.6894 45.6982 88.6981 42.9363C88.6981 40.6765 86.7208 32.1394 86.4383 29.8796C85.6348 23.4517 81.4165 20.5056 79.4078 19.8361C69.1131 16.3208 64.3424 31.8884 63.5891 33.646C62.9865 35.0521 61.162 35.9058 60.325 36.1569C60.1576 32.0558 60.325 24.3557 60.325 21.8449C60.325 20.1885 59.3206 19.8361 58.5674 19.8361C52.1227 19.7524 38.5304 19.6352 35.7182 19.8361C32.906 20.0369 33.2073 21.5937 33.2073 22.598V36.1569C31.6004 35.7552 30.1943 35.1526 29.6921 34.1482C29.6921 32.1395 27.5327 26.264 22.9127 21.8449C18.2926 17.4257 12.9528 20.0035 10.8604 21.8449C8.09844 23.3514 3.82992 39.9233 5.08537 43.4386Z" fill="url(#paint2_linear)"/>
<circle cx="18.3937" cy="7.28159" r="7.28159" fill="url(#paint3_linear)"/>
<circle cx="75.1397" cy="7.28159" r="7.28159" fill="url(#paint4_linear)"/>
<defs>
<linearGradient id="paint0_linear" x1="6.38337" y1="53.231" x2="5.48318" y2="75.3955" gradientUnits="userSpaceOnUse">
<stop stop-color="#5E52EB"/>
<stop offset="1" stop-color="#632CFF" stop-opacity="0.4"/>
</linearGradient>
<linearGradient id="paint1_linear" x1="87.4089" y1="53.231" x2="88.1615" y2="75.3024" gradientUnits="userSpaceOnUse">
<stop stop-color="#5E52EB"/>
<stop offset="1" stop-color="#632CFF" stop-opacity="0.4"/>
</linearGradient>
<linearGradient id="paint2_linear" x1="46.9739" y1="19.321" x2="46.0899" y2="75.777" gradientUnits="userSpaceOnUse">
<stop stop-color="#5E52EB"/>
<stop offset="1" stop-color="#632CFF" stop-opacity="0.4"/>
</linearGradient>
<linearGradient id="paint3_linear" x1="18.4276" y1="1.00836e-08" x2="18.0892" y2="14.5561" gradientUnits="userSpaceOnUse">
<stop stop-color="#5E52EB"/>
<stop offset="1" stop-color="#632CFF" stop-opacity="0.4"/>
</linearGradient>
<linearGradient id="paint4_linear" x1="75.1736" y1="1.00836e-08" x2="74.8352" y2="14.5561" gradientUnits="userSpaceOnUse">
<stop stop-color="#5E52EB"/>
<stop offset="1" stop-color="#632CFF" stop-opacity="0.4"/>
</linearGradient>
</defs>
</svg>
