<svg width="101" height="98" viewBox="0 0 101 98" fill="none" xmlns="http://www.w3.org/2000/svg">
<path d="M2.41126 75.6535H12.6591C15.9038 71.6453 21.8806 68.0022 26.0749 65.8603C27.9379 64.909 30.0127 64.4916 32.1044 64.4725L62.0899 64.2C71.7349 68.1182 67.2138 74.7492 62.0899 75.6535H46.7181C43.3424 77.5825 45.3116 80.0741 46.7181 81.0788H72.6391L83.4898 72.9408L94.3405 64.5014C100.175 63.4405 101.342 68.446 100.923 71.7172C100.819 72.5273 100.338 73.2218 99.715 73.7496L71.1321 97.9576H67.2138C46.3162 97.8571 4.09914 97.7165 2.41126 97.9576C0.723377 98.1987 0.100469 96.6515 0 95.8477V78.3661C0 76.196 1.60751 75.6535 2.41126 75.6535Z" fill="url(#paint0_linear)"/>
<path d="M72.4599 11.6949C71.1642 10.3986 69.6258 9.37026 67.9326 8.66867C66.2393 7.96707 64.4244 7.60596 62.5916 7.60596C60.7588 7.60596 58.9439 7.96707 57.2507 8.66867C55.5574 9.37026 54.019 10.3986 52.7233 11.6949L50.0342 14.384L47.3452 11.6949C44.7279 9.07767 41.1782 7.60731 37.4769 7.60731C33.7755 7.60731 30.2258 9.07767 27.6085 11.6949C24.9913 14.3122 23.5209 17.8619 23.5209 21.5632C23.5209 25.2646 24.9913 28.8143 27.6085 31.4316L30.2976 34.1206L48.3292 52.1522C49.2709 53.0939 50.7976 53.0939 51.7393 52.1522L69.7709 34.1206L72.4599 31.4316C73.7562 30.1358 74.7846 28.5974 75.4862 26.9042C76.1878 25.2109 76.5489 23.3961 76.5489 21.5632C76.5489 19.7304 76.1878 17.9155 75.4862 16.2223C74.7846 14.529 73.7562 12.9906 72.4599 11.6949Z" fill="url(#paint1_linear)"/>
<defs>
<linearGradient id="paint0_linear" x1="50.7349" y1="64.2" x2="50.4722" y2="97.9826" gradientUnits="userSpaceOnUse">
<stop stop-color="#5E52EB"/>
<stop offset="1" stop-color="#632CFF" stop-opacity="0.4"/>
</linearGradient>
<linearGradient id="paint1_linear" x1="50.1582" y1="7.60596" x2="49.2207" y2="53.8407" gradientUnits="userSpaceOnUse">
<stop stop-color="#5E52EB"/>
<stop offset="1" stop-color="#632CFF" stop-opacity="0.4"/>
</linearGradient>
</defs>
</svg>
