<svg width="76" height="78" viewBox="0 0 76 78" fill="none" xmlns="http://www.w3.org/2000/svg">
<path d="M0.644653 44.3272C2.01657 52.9156 6.20129 60.7628 12.504 66.5657C18.8067 72.3686 26.8482 75.7782 35.2933 76.2283C43.7385 76.6785 52.0792 74.1421 58.9306 69.0404C65.782 63.9387 70.7319 56.5785 72.9585 48.1819C75.1851 39.7853 74.5544 30.8574 71.1711 22.8806C67.7878 14.9039 61.8555 8.35806 54.3591 4.33007C46.8628 0.302079 38.2533 -0.965776 29.9603 0.737017C21.6672 2.43981 14.1895 7.01081 8.76867 13.6911L16.417 20.2657C20.3801 15.3819 25.8469 12.0401 31.9098 10.7953C37.9727 9.55038 44.2669 10.4773 49.7474 13.4221C55.2279 16.3669 59.5649 21.1524 62.0384 26.9841C64.5118 32.8158 64.9729 39.3428 63.3451 45.4814C61.7173 51.62 58.0985 57.0009 53.0895 60.7307C48.0806 64.4604 41.9828 66.3147 35.8087 65.9856C29.6347 65.6565 23.7556 63.1638 19.1479 58.9214C14.5401 54.679 11.4807 48.9421 10.4777 42.6633L0.644653 44.3272Z" fill="url(#paint0_linear)"/>
<path d="M2.4062 30.2388C1.6324 30.3604 0.927517 29.7753 0.904649 28.9923L0.324341 9.12294C0.291672 8.00435 1.59345 7.36977 2.45449 8.08456L22.6715 24.8674C23.5326 25.5822 23.1484 26.9785 22.0429 27.1523L2.4062 30.2388Z" fill="url(#paint1_linear)"/>
<path d="M30.9902 23.4894V41.0239C30.9902 41.927 31.4607 42.7647 32.2318 43.2346L45.8506 51.5343C51.0793 52.472 52.6082 47.5109 50.4066 44.6978L39.6197 37.849V31.8083V23.4894C36.1679 20.1585 32.4579 21.3014 30.9902 23.4894Z" fill="url(#paint2_linear)"/>
<defs>
<linearGradient id="paint0_linear" x1="37.3823" y1="5.2816e-08" x2="35.558" y2="76.2398" gradientUnits="userSpaceOnUse">
<stop stop-color="#5E52EB"/>
<stop offset="1" stop-color="#632CFF" stop-opacity="0.4"/>
</linearGradient>
<linearGradient id="paint1_linear" x1="0.881567" y1="30.4131" x2="16.6501" y2="11.9963" gradientUnits="userSpaceOnUse">
<stop stop-color="#632CFF" stop-opacity="0.4"/>
<stop offset="0.0001" stop-color="#5E52EB"/>
</linearGradient>
<linearGradient id="paint2_linear" x1="41.2334" y1="21.3981" x2="40.1912" y2="51.6162" gradientUnits="userSpaceOnUse">
<stop stop-color="#5E52EB"/>
<stop offset="1" stop-color="#632CFF" stop-opacity="0.4"/>
</linearGradient>
</defs>
</svg>
