<svg width="58" height="78" viewBox="0 0 58 78" fill="none" xmlns="http://www.w3.org/2000/svg">
<path d="M50.1584 29.649H45.2598C43.1973 27.6724 38.7113 23.3582 37.2675 21.9145C35.8237 20.4707 34.4315 20.1097 33.9159 20.1097L32.1112 19.8519L30.3064 20.1097C29.4471 20.1957 27.1611 21.0379 24.8923 23.7192C22.6235 26.4005 19.9938 39.2742 18.9625 45.3758L33.9159 60.5871V74.2514C37.8347 80.439 41.5645 76.8295 42.9395 74.2514V58.7823C42.9395 57.5448 42.252 56.2042 41.9082 55.6885L33.4003 46.4071L36.4941 34.5475L41.9082 39.1882H50.1584V75.5405C53.4584 79.6655 56.1741 77.2592 57.1194 75.5405V26.5552C54.0256 23.2551 51.1896 25.1801 50.1584 26.5552V29.649Z" fill="url(#paint0_linear)"/>
<circle cx="35.4628" cy="7.73452" r="7.73452" fill="url(#paint1_linear)"/>
<path d="M13.8062 42.7974L21.0252 16.7581C13.2906 11.0861 5.99252 19.6795 6.0718 19.5939C6.3196 19.3264 4.52489 21.4845 4.26708 22.172C2.46236 26.555 0.554387 37.0223 0.14188 38.6723C-0.270628 40.3224 0.313758 40.7349 0.657514 40.7349C2.29036 41.4224 6.32949 42.9521 9.4233 43.5709C12.5171 44.1896 13.6343 43.3131 13.8062 42.7974Z" fill="url(#paint2_linear)"/>
<path d="M12.2598 71.4154L17.6739 51.0478L25.9241 59.0402L21.0256 76.8295C15.0442 80.5421 12.3457 74.5092 12.2598 71.4154Z" fill="url(#paint3_linear)"/>
<defs>
<linearGradient id="paint0_linear" x1="38.1297" y1="19.8519" x2="36.0849" y2="77.749" gradientUnits="userSpaceOnUse">
<stop stop-color="#5E52EB"/>
<stop offset="1" stop-color="#632CFF" stop-opacity="0.4"/>
</linearGradient>
<linearGradient id="paint1_linear" x1="35.4987" y1="1.07108e-08" x2="35.1393" y2="15.4615" gradientUnits="userSpaceOnUse">
<stop stop-color="#5E52EB"/>
<stop offset="1" stop-color="#632CFF" stop-opacity="0.4"/>
</linearGradient>
<linearGradient id="paint2_linear" x1="10.5615" y1="14.8203" x2="9.63482" y2="43.7556" gradientUnits="userSpaceOnUse">
<stop stop-color="#5E52EB"/>
<stop offset="1" stop-color="#632CFF" stop-opacity="0.4"/>
</linearGradient>
<linearGradient id="paint3_linear" x1="19.1237" y1="51.0478" x2="17.8903" y2="77.9449" gradientUnits="userSpaceOnUse">
<stop stop-color="#5E52EB"/>
<stop offset="1" stop-color="#632CFF" stop-opacity="0.4"/>
</linearGradient>
</defs>
</svg>
